<svg xmlns="http://www.w3.org/2000/svg" width="1222" height="1211" viewBox="0 0 1222 1211">
  <path fill="#1E2434" fill-rule="evenodd" d="M156.734396,1011.12745 C158.728123,1018.50046 161.624314,1023.97957 164.538232,1028.92122 C168.571847,1035.76173 172.930575,1041.20614 177.589077,1045.93228 C187.614721,1056.10349 199.035313,1063.5127 220.808952,1069.35492 L734.272177,1219.30068 C773.471958,1229.81862 799.336948,1225.55814 828.110294,1196.53227 L1199.21896,822.166713 C1227.9923,793.140848 1223.46434,762.62089 1212.9045,722.942513 L1063.29756,202.747051 C1061.99056,197.913624 1060.92879,194.136909 1059.3407,190.729651 C1055.79568,183.123802 1051.9986,177.752503 1046.2205,171.923696 C1037.85394,163.483708 1029.53423,155.180913 1005.8213,148.818348 L504.026754,-0.265744356 C464.826972,-10.7836829 423.539176,-18.3722524 394.76583,10.6536123 L22.7114475,387.318937 C-6.06189876,416.344802 -4.02260872,456.131149 6.53722988,495.809527 L156.734396,1011.12745 Z" transform="rotate(70 610.199 607.435)"/>
</svg>
