<svg xmlns="http://www.w3.org/2000/svg" width="74" height="64" viewBox="0 0 74 64">
    <path fill="#F49102" fill-rule="evenodd" d="M33.987 64H0V37.725c0-9.673 2.005-17.307 6.016-22.901C10.026 9.229 16.902 4.288 26.643 0l7.344 13.96c-5.99 2.824-10.13 5.635-12.423 8.432-2.292 2.798-3.568 6.105-3.828 9.922h16.251V64zM73.6 64H39.613V37.725c0-9.673 2.005-17.307 6.016-22.901C49.639 9.229 56.515 4.288 66.256 0L73.6 13.96c-5.99 2.824-10.131 5.635-12.423 8.432-2.292 2.798-3.568 6.105-3.828 9.922H73.6V64z"/>
</svg>
