<?xml version="1.0" encoding="UTF-8"?>
<svg width="60px" height="60px" viewBox="0 0 60 60" version="1.1" xmlns="http://www.w3.org/2000/svg" xmlns:xlink="http://www.w3.org/1999/xlink">
    <!-- Generator: Sketch 50.2 (55047) - http://www.bohemiancoding.com/sketch -->
    <title>Atom / Icon / Value Prop / 2</title>
    <desc>Created with Sketch.</desc>
    <defs></defs>
    <g id="Atom-/-Icon-/-Value-Prop-/-2" stroke="none" stroke-width="1" fill="none" fill-rule="evenodd">
        <g>
            <rect id="Rectangle" fill-opacity="0.100000001" fill="#32C3FF" x="0" y="0" width="60" height="60" rx="4"></rect>
            <g id="Rectangle-3" transform="translate(16.000000, 16.000000)">
                <circle id="Mask" fill="#2D354C" cx="14" cy="14" r="14"></circle>
                <path d="M25.1048615,22.5265297 C23.3396629,21.9219316 21.1511569,21.2474142 19.9983986,21.3324441 C17.4502772,21.5203989 15.9281206,21.7012347 15.6197024,22.1030499 C15.3329571,22.4766291 14.2828159,24.1222828 14.2852516,25.9531006 C14.2861391,26.6201518 14.1024068,27.3286169 13.9574666,27.9999368 C10.3420527,27.9891847 7.04910085,26.6079985 4.57078143,24.3485486 C6.14886454,23.295603 8.89704466,20.9937762 9.22475984,19.9592565 C9.61528618,18.7264568 9.95990971,18.1821938 9.37475598,17.413803 C8.83218542,16.7013299 5.38003132,15.6067595 4.32725964,13.5462163 C3.84663297,12.6055071 4.56571483,11.0890059 5.13244692,10.3755883 C6.39817096,8.78226074 8.32429471,12.4454601 9.10686186,10.7873987 C9.47893106,9.99907841 9.72677015,8.71870625 10.2848963,5.03394791 C10.4215281,4.13190228 10.3722811,2.63382123 10.1371552,0.539704748 C11.3641379,0.188235369 12.6600866,0 14,0 C16.7483492,0 19.3117311,0.791938689 21.4743967,2.1600669 C20.8574817,2.18956885 20.4852547,2.32400566 20.3577159,2.56337734 C19.9213138,3.38243972 19.7292883,4.6735722 19.6885983,4.70163766 C18.6536205,5.41550132 16.9227428,6.58789166 15.7694463,7.03244932 C14.6161498,7.47700698 14.3877604,9.33755826 14.2917511,10.3484242 C14.1957418,11.3592902 15.2249406,11.0831148 15.2249406,13.4096007 C15.2249406,14.1815842 13.7360941,13.2359172 13.3587786,13.8957187 C12.8812356,14.7307856 12.6828578,16.2286343 13.3587786,17.1226693 C13.758261,17.6510613 14.574236,17.8778453 15.5176013,17.8778453 C16.7133116,17.8778453 17.0693449,15.8383754 17.7762893,14.6269447 C18.4832337,13.4155139 20.3170652,13.2266277 21,12.9763283 C21.4821515,12.799617 21.6466936,14.075356 22.5211899,14.0711935 C23.1762598,14.0680754 24.5385749,19.5770181 26.2829058,19.3794242 C26.5968459,19.3438618 27.020506,18.7239113 27.553886,17.5195726 C27.0764411,19.3634606 26.2326688,21.0598771 25.1048615,22.5265297 Z M1.67688268,20.6495374 C0.607249069,18.6714319 0,16.4066313 0,14 C0,12.9046443 0.125793466,11.8386693 0.363722027,10.8157332 L0.365696301,11.247434 L2.08296743,13.2939981 C1.71692858,16.8193953 1.58156699,19.2712417 1.67688268,20.6495374 Z" id="Combined-Shape" fill="#32C3FF"></path>
            </g>
        </g>
    </g>
</svg>